<?xml version="1.0" encoding="UTF-8"?>
<svg width="24px" height="24px" viewBox="0 0 24 24" version="1.1" xmlns="http://www.w3.org/2000/svg" xmlns:xlink="http://www.w3.org/1999/xlink">
    <!-- Generator: sketchtool 42 (36781) - http://www.bohemiancoding.com/sketch -->
    <title>2E1E770D-52DD-482A-9863-A58D05F1DA3C</title>
    <desc>Created with sketchtool.</desc>
    <defs></defs>
    <g id="Symbols" stroke="none" stroke-width="1" fill="none" fill-rule="evenodd">
        <g id="Icons-/-Navigation-/-Check_purple">
            <g>
                <polygon id="Shape" points="0 0 24 0 24 24 0 24"></polygon>
                <path d="M12,2 L12,2 C14.6521649,2 17.195704,3.0535684 19.0710678,4.92893219 C20.9464316,6.80429597 22,9.3478351 22,12 C22,14.6521649 20.9464316,17.195704 19.0710678,19.0710678 C17.195704,20.9464316 14.6521649,22 12,22 C9.3478351,22 6.80429597,20.9464316 4.92893219,19.0710678 C3.0535684,17.195704 2,14.6521649 2,12 C2,6.4771525 6.4771525,2 12,2 Z M10,17 L19,8 L17.59,6.58 L10,14.17 L6.41,10.58 L5,12 L10,17 Z" id="Combined-Shape" fill="#792667" fill-rule="nonzero"></path>
            </g>
        </g>
    </g>
</svg>