<?xml version="1.0" encoding="UTF-8"?>
<svg width="36px" height="36px" viewBox="0 0 36 36" version="1.1" xmlns="http://www.w3.org/2000/svg" xmlns:xlink="http://www.w3.org/1999/xlink">
    <!-- Generator: sketchtool 42 (36781) - http://www.bohemiancoding.com/sketch -->
    <title>C66075D2-FADA-4182-9978-FE8E18E95B60</title>
    <desc>Created with sketchtool.</desc>
    <defs></defs>
    <g id="Symbols" stroke="none" stroke-width="1" fill="none" fill-rule="evenodd">
        <g id="Icons-/-degree_grey">
            <g>
                <path d="M25.43,19.09 L29.25,25.69 C29.4415902,26.0419384 29.3226881,26.4823167 28.98,26.69 C28.8359924,26.7766501 28.6656162,26.8085957 28.5,26.78 L24.78,26.3 L23.33,29.81 C23.1462747,30.1775067 22.7140256,30.3460839 22.33,30.2 C22.1614438,30.130012 22.0232274,30.0024276 21.94,29.84 L18,23.09 L14.08,29.9 C13.994708,30.0539738 13.8559673,30.1713698 13.69,30.23 C13.3061496,30.3978385 12.8588679,30.2233986 12.69,29.84 L11.24,26.33 L7.52,26.81 C7.34148731,26.8439867 7.15670639,26.8120053 7,26.72 C6.65731195,26.5123167 6.53840981,26.0719384 6.73,25.72 L10.91,18.51 C10.1698212,17.2308642 9.78326812,15.7778389 9.79,14.3 C9.79,9.56691969 13.6269197,5.73 18.36,5.73 C23.0930803,5.73 26.93,9.56691969 26.93,14.3 C26.9252952,16.0192393 26.3987415,17.6965394 25.42,19.11 L25.43,19.09 Z M18.38,19.67 C16.1940891,19.6740442 14.2213547,18.3598611 13.3829736,16.341114 C12.5445924,14.322367 13.0059576,11.9973077 14.5516326,10.4516326 C16.0973077,8.90595759 18.422367,8.44459241 20.441114,9.28297355 C22.4598611,10.1213547 23.7740442,12.0940891 23.77,14.28 C23.7590321,17.2522599 21.3522599,19.6590321 18.38,19.67 L18.38,19.67 Z M18.38,18.16 C20.5188816,18.1434618 22.2409529,16.3990717 22.2299487,14.2601545 C22.2189444,12.1212373 20.4790157,10.3946585 18.3400772,10.4001287 C16.2011387,10.4055988 14.4700639,12.1410545 14.47,14.28 C14.4645454,15.3159209 14.8757134,16.3105573 15.6110458,17.0402477 C16.3463781,17.7699381 17.3441519,18.1734332 18.38,18.16 L18.38,18.16 Z M11.87,19.86 L8.81,25.12 L11.63,24.76 C11.971075,24.7210816 12.2996407,24.901392 12.45,25.21 L13.51,27.84 L16.51,22.63 C14.6971396,22.2251093 13.0630346,21.2467503 11.85,19.84 L11.87,19.86 Z M19.56,22.77 L22.5,27.86 L23.59,25.23 C23.7272211,24.9239517 24.0467641,24.7419335 24.38,24.78 L27.2,25.14 L24.4,20.33 C23.0886703,21.6358593 21.3914852,22.4844518 19.56,22.75 L19.56,22.77 Z M18.38,21.3 C22.2393644,21.2724324 25.3482666,18.1263238 25.3299209,14.2669046 C25.3115753,10.4074854 22.1729043,7.2910745 18.3134523,7.30019813 C14.4540002,7.30932176 11.3300985,10.4405372 11.33,14.3 C11.3629022,18.1717835 14.5080804,21.2946555 18.38,21.3 L18.38,21.3 Z" id="Shape" fill-opacity="0.26" fill="#000000" fill-rule="nonzero"></path>
                <rect id="Rectangle-path" x="0" y="0" width="36" height="36"></rect>
            </g>
        </g>
    </g>
</svg>