<?xml version="1.0" encoding="UTF-8"?>
<svg width="36px" height="36px" viewBox="0 0 36 36" version="1.1" xmlns="http://www.w3.org/2000/svg" xmlns:xlink="http://www.w3.org/1999/xlink">
    <!-- Generator: sketchtool 42 (36781) - http://www.bohemiancoding.com/sketch -->
    <title>FE778006-D381-459B-8E39-58D8B12F53E7</title>
    <desc>Created with sketchtool.</desc>
    <defs></defs>
    <g id="Symbols" stroke="none" stroke-width="1" fill="none" fill-rule="evenodd">
        <g id="Icons-/-insignia_grey">
            <g>
                <path d="M23.49,24.48 C23.6020228,24.0862865 23.9993398,23.8461499 24.4,23.93 C24.5980057,23.9730182 24.7706352,24.0933243 24.8795409,24.2641937 C24.9884467,24.4350631 25.0246109,24.642347 24.98,24.84 L24.28,27.47 L26.58,26 C26.831933,25.847037 27.148067,25.847037 27.4,26 L29.7,27.45 L29,24.84 C28.9043795,24.538951 29.028654,24.2116947 29.3,24.05 L31.3,22.35 L28.57,22.17 C28.2680309,22.1407915 28.0085653,21.9432879 27.9,21.66 L26.9,19.18 L25.9,21.69 C25.8180617,21.96067 25.5908383,22.162237 25.3123291,22.2113155 C25.0338198,22.2603939 24.7513832,22.1486384 24.5818595,21.9222807 C24.4123358,21.695923 24.3845512,21.3934536 24.51,21.14 L26.21,16.84 C26.3042314,16.6606937 26.4506937,16.5142314 26.63,16.42 C27.0221114,16.2616524 27.468549,16.4491561 27.63,16.84 L29.14,20.69 L33.29,20.96 C33.4936484,20.9622752 33.6836349,21.0628563 33.8,21.23 C33.9318333,21.3811135 33.9966914,21.5792619 33.9797257,21.7790805 C33.96276,21.9788991 33.8654232,22.1632762 33.71,22.29 L30.53,24.92 L31.53,28.92 C31.5586903,29.1179834 31.5273396,29.3200212 31.44,29.5 C31.2097208,29.8535073 30.7400933,29.9598381 30.38,29.74 L27,27.57 L23.55,29.75 C23.3638386,29.8801477 23.1306644,29.9238679 22.91,29.87 C22.7119943,29.8269818 22.5393648,29.7066757 22.4304591,29.5358063 C22.3215533,29.3649369 22.2853891,29.157653 22.33,28.96 L23.49,24.48 Z M18.71,6.58 L20.71,11.49 L25.98,11.82 C26.1828442,11.8326248 26.3718804,11.9270301 26.5038344,12.0816048 C26.6357884,12.2361794 26.6993613,12.4376876 26.68,12.64 C26.6754405,12.8612238 26.5635285,13.0663957 26.38,13.19 L22.38,16.52 L23.68,21.64 C23.7317442,21.8375874 23.7028642,22.0476381 23.5997152,22.2239291 C23.4965662,22.4002201 23.3276005,22.5283058 23.13,22.58 C22.9093356,22.6338679 22.6761614,22.5901477 22.49,22.46 L18,19.66 L13.55,22.48 C13.2064529,22.6825306 12.7642058,22.5763913 12.55,22.24 C12.4372698,22.0691391 12.3943236,21.8615657 12.43,21.66 L13.73,16.51 L9.65,13.15 C9.33649153,12.8800571 9.2964906,12.408935 9.56,12.09 C9.70803364,11.9411 9.90165734,11.8460483 10.11,11.82 L15.38,11.49 L17.32,6.58 C17.3931083,6.38863095 17.5413148,6.23549558 17.7301905,6.15616778 C17.9190662,6.07683998 18.132171,6.0782246 18.32,6.16 C18.5132022,6.23414107 18.6658589,6.38679781 18.74,6.58 L18.71,6.58 Z M19.44,12.48 L18,8.89 L16.61,12.43 C16.5340194,12.7219855 16.2964606,12.9439667 16,13 L12.12,13.24 L15,15.64 C15.2493108,15.8329412 15.3659386,16.1517237 15.3,16.46 L14.3,20.18 L17.57,18.12 C17.821933,17.967037 18.138067,17.967037 18.39,18.12 L21.63,20.18 L20.69,16.46 C20.6150777,16.1724872 20.7078079,15.8672502 20.93,15.67 L23.93,13.22 L20.1,13 C19.8088448,12.966221 19.5556353,12.7848172 19.43,12.52 L19.44,12.48 Z M11,24.84 C10.9427287,24.6459934 10.9697103,24.4368438 11.0743432,24.2637239 C11.1789761,24.090604 11.3516076,23.9694846 11.55,23.93 C11.952438,23.8353028 12.3567544,24.0796698 12.46,24.48 L13.65,29 C13.7446972,29.402438 13.5003302,29.8067544 13.1,29.91 C12.8794179,29.9666092 12.6450917,29.9226731 12.46,29.79 L9,27.57 L5.5,29.78 C5.15645295,29.9825306 4.71420578,29.8763913 4.5,29.54 C4.38285797,29.3862553 4.3389985,29.1888877 4.38,29 L5.38,25 L2.2,22.3 C1.88649153,22.0300571 1.8464906,21.558935 2.11,21.24 C2.24712702,21.0802934 2.44965578,20.9919172 2.66,21 L6.78,20.73 L8.32,16.88 C8.39069447,16.6867309 8.53867758,16.5316296 8.72841481,16.45194 C8.91815203,16.3722504 9.13250425,16.3751708 9.32,16.46 C9.50701574,16.543398 9.65660202,16.6929843 9.74,16.88 L11.44,21.18 C11.5248292,21.3674958 11.5277496,21.581848 11.44806,21.7715852 C11.3683704,21.9613224 11.2132691,22.1093055 11.02,22.18 C10.832171,22.2617754 10.6190662,22.26316 10.4301905,22.1838322 C10.2413148,22.1045044 10.0931083,21.951369 10.02,21.76 L9,19.18 L8,21.66 C7.89985387,21.9494888 7.63570415,22.150558 7.33,22.17 L4.6,22.35 L6.66,24.05 C6.90847379,24.2300366 7.02633877,24.5404143 6.96,24.84 L6.29,27.47 L8.59,26 C8.84193301,25.847037 9.15806699,25.847037 9.41,26 L11.71,27.45 L11,24.84 Z" id="Shape" fill-opacity="0.26" fill="#000000" fill-rule="nonzero"></path>
                <rect id="Rectangle-path" x="0" y="0" width="36" height="36"></rect>
            </g>
        </g>
    </g>
</svg>