<?xml version="1.0" encoding="UTF-8"?>
<svg width="81px" height="106px" viewBox="0 0 81 106" version="1.1" xmlns="http://www.w3.org/2000/svg" xmlns:xlink="http://www.w3.org/1999/xlink">
    <!-- Generator: sketchtool 42 (36781) - http://www.bohemiancoding.com/sketch -->
    <title>D756717A-7094-4757-B985-EBA543807DD1</title>
    <desc>Created with sketchtool.</desc>
    <defs></defs>
    <g id="Symbols" stroke="none" stroke-width="1" fill="none" fill-rule="evenodd">
        <g id="Logos-/-Full" fill="#792667">
            <g>
                <path d="M53,38.0013261 C53,36.4846626 50.5174223,36.3539484 49.5667526,36.3539484 C46.6654862,36.3539484 41.9530596,37.5375749 40.2589807,37.892587 C41.7086667,36.9468983 45.8879756,34.4402168 47.9298882,32.4010754 C48.612294,31.7183306 50.2639356,29.8799965 49.1920168,28.8096557 C48.1200979,27.7362838 46.2729419,29.3991956 45.6000087,30.0720895 C43.5490025,32.1244918 41.0531631,36.2918118 40.1062825,37.7433076 C40.4635888,36.047812 41.6465265,31.3205048 41.6465265,28.4334261 C41.6465265,27.4703088 41.5150469,25 39.9990527,25 C38.4849531,25 38.3542313,27.4850852 38.3542313,28.4334261 C38.3542313,31.3360389 39.5364112,36.047812 39.8929597,37.7433076 C38.9460791,36.2902963 36.4407671,32.1112309 34.3999913,30.0720895 C33.7168277,29.3897236 31.8799021,27.7362838 30.8079832,28.8096557 C29.7368222,29.8799965 31.3983153,31.7289393 32.0712485,32.4010754 C34.1230126,34.4534777 38.2913333,36.947656 39.742156,37.892587 C38.0458036,37.5375749 33.3204943,36.3539484 30.4332474,36.3539484 C29.4685583,36.3539484 27,36.4846626 27,38.0013261 C27,39.5157163 29.4825777,39.6460516 30.4332474,39.6460516 C33.3360294,39.6460516 38.0473193,38.4658351 39.742156,38.107413 C38.2913333,39.0542384 34.1120244,41.5594043 32.0712485,43.600819 C31.3888427,44.2843216 29.7368222,46.1218979 30.8079832,47.1929965 C31.8799021,48.2648529 33.7278159,46.6011833 34.3999913,45.9290471 C36.4513764,43.876266 38.9468369,39.7100826 39.8922019,38.2604812 C39.5364112,39.955598 38.3542313,44.6806319 38.3542313,47.5669528 C38.3542313,48.5315856 38.4849531,51 39.9990527,51 C41.5150469,51 41.6465265,48.517567 41.6465265,47.5669528 C41.6465265,44.6650977 40.4635888,39.9529458 40.1062825,38.2604812 C41.0539209,39.7100826 43.5599907,43.8883902 45.6000087,45.9290471 C46.2831723,46.6114131 48.1200979,48.2648529 49.1920168,47.1929965 C50.2639356,46.1218979 48.6020636,44.2740918 47.9298882,43.600819 C45.8769874,41.5491745 41.7086667,39.0542384 40.2589807,38.107413 C41.9545753,38.4658351 46.6806424,39.6460516 49.5667526,39.6460516 C50.5318206,39.6460516 53,39.5157163 53,38.0013261" id="Fill-1"></path>
                <path d="M58.6369136,44.6424046 C58.363268,42.4682613 58.2187712,40.2521923 58.2187712,37.9986898 C58.2187712,35.7485563 58.363268,33.5317387 58.6369136,31.3575954 C62.4301435,34.1063444 66.565524,36.3486169 70.9045477,38.0001872 C66.5662727,39.6525061 62.4301435,41.8914095 58.6369136,44.6424046 L58.6369136,44.6424046 Z M61.8521561,59.8516749 C57.6164513,57.9500482 53.1078497,56.6132944 48.4813296,55.8743552 C49.8252253,54.1426771 51.2900342,52.4742616 52.8828688,50.8814621 C54.4760778,49.2894112 56.1449042,47.8242603 57.8754975,46.4815172 C58.6137043,51.1094327 59.9519849,55.6156891 61.8521561,59.8516749 L61.8521561,59.8516749 Z M47.335462,55.7066527 C44.9115832,55.3731194 42.4596286,55.2012992 39.9994385,55.2012992 C37.5422431,55.2012992 35.0899142,55.3731194 32.6667841,55.7066527 C31.1877501,53.7563623 29.5765727,51.9004046 27.8369951,50.1634857 C26.0992893,48.4246952 24.2440394,46.8116815 22.2937061,45.3345518 C22.6264981,42.9107264 22.7990707,40.4599488 22.7990707,38.0001872 C22.7990707,35.5400512 22.6264981,33.088525 22.2937061,30.6654482 C24.2421677,29.1856982 26.0985406,27.5753048 27.8369951,25.8357656 C29.5750753,24.0973494 31.1877501,22.2436377 32.6667841,20.2925986 C35.0899142,20.6253833 37.5407457,20.7987008 39.9994385,20.7987008 C42.4596286,20.7987008 44.9115832,20.6253833 47.3347133,20.2925986 C48.8126242,22.2436377 50.424176,24.0973494 52.1641279,25.8357656 C53.9022081,27.5753048 55.7582067,29.1856982 57.7077913,30.6654482 C57.3731276,33.088525 57.2013036,35.5400512 57.2013036,37.9986898 C57.2013036,40.4584515 57.3731276,42.909229 57.7077913,45.3345518 C55.7582067,46.8116815 53.9022081,48.4246952 52.1641279,50.1634857 C50.424176,51.9004046 48.8126242,53.7563623 47.335462,55.7066527 L47.335462,55.7066527 Z M39.9994385,68.9031185 C38.3493292,64.5630674 36.1085048,60.4296496 33.3570748,56.6357546 C35.531266,56.3628637 37.7492554,56.21837 39.9994385,56.21837 C42.2518676,56.21837 44.4691083,56.3628637 46.6432995,56.6357546 C43.8926183,60.4296496 41.6510451,64.5630674 39.9994385,68.9031185 L39.9994385,68.9031185 Z M18.1474696,59.8535466 C20.0495125,55.6156891 21.3870444,51.1094327 22.1256255,46.4815172 C23.8565931,47.8242603 25.5254196,49.2894112 27.1178799,50.8814621 C28.7103402,52.4742616 30.1762721,54.1426771 31.5190448,55.8743552 C26.8921503,56.6132944 22.383923,57.9522942 18.1474696,59.8535466 L18.1474696,59.8535466 Z M9.09470358,38.0001872 C13.4352247,36.3486169 17.5706052,34.1063444 21.3653324,31.3575954 C21.6374807,33.5317387 21.7804802,35.7485563 21.7804802,38.0001872 C21.7804802,40.2521923 21.6374807,42.4682613 21.3653324,44.6424046 C17.5706052,41.8929069 13.4359734,39.6525061 9.09470358,38.0001872 L9.09470358,38.0001872 Z M18.148967,16.1479508 C22.383923,18.0492032 26.8921503,19.3882029 31.5190448,20.1260191 C30.1762721,21.8561999 28.7103402,23.524241 27.1178799,25.1174149 C25.5254196,26.7098401 23.8565931,28.1749911 22.1256255,29.5184828 C21.3870444,24.8920646 20.0495125,20.3835622 18.148967,16.1479508 L18.148967,16.1479508 Z M39.9994385,7.09613278 C41.6510451,11.435061 43.8926183,15.5703504 46.6432995,19.3634967 C44.4691083,19.6371363 42.2518676,19.7801327 39.9994385,19.7801327 C37.7492554,19.7801327 35.531266,19.6371363 33.3570748,19.3634967 C36.1085048,15.5703504 38.3493292,11.435061 39.9994385,7.09613278 L39.9994385,7.09613278 Z M61.8529047,16.1479508 C59.9519849,20.3828136 58.6137043,24.8920646 57.8747488,29.5184828 C56.1449042,28.1749911 54.4753291,26.7098401 52.8828688,25.1174149 C51.2900342,23.524241 49.8252253,21.8561999 48.4813296,20.1260191 C53.1078497,19.3882029 57.6164513,18.0492032 61.8529047,16.1479508 L61.8529047,16.1479508 Z M73.9898927,37.9897058 L73.9711755,37.9897058 C68.641637,36.3029479 63.5000193,33.708051 58.7922665,30.2151221 C59.6517608,24.4144119 61.4538538,18.9427431 64.0300907,13.9794225 L64.041321,13.9685668 L64.041321,13.957711 L64.0278446,13.957711 L64.0128708,13.9723101 C59.0520614,16.5477416 53.5825181,18.3479233 47.784675,19.207773 C44.2871771,14.4941345 41.6899769,9.3455176 40.0028076,4.00786106 L40.0069254,4.00786106 L39.9994385,4 L39.9900799,4.0093584 L39.9979411,4.0093584 C38.3103974,9.34738928 35.7131973,14.4941345 32.2156993,19.207773 C26.4103693,18.3460516 20.9344622,16.5436239 15.9661659,13.9637004 L15.969535,13.957711 L15.958679,13.957711 L15.958679,13.9723101 L15.9624224,13.9663208 C18.5439001,18.9341334 20.3478649,24.4084226 21.2081079,30.2151221 C16.498109,33.7095483 11.3542452,36.3051939 6.02395803,37.9927004 L6.00748688,37.9927004 L6,38.0001872 L6.01048164,38.0121659 L6.02919885,38.0121659 C11.3598604,39.6963034 16.5011038,42.290826 21.2081079,45.7830062 C20.3497366,51.582219 18.5472692,57.0557595 15.969535,62.0205775 L15.958679,62.0306845 L15.958679,62.0415403 L15.9732784,62.0415403 L15.9871292,62.0273155 C20.948313,59.4507611 26.4178562,57.6513281 32.2156993,56.792227 C35.7131973,61.5039938 38.3103974,66.6541081 39.9979411,71.9906416 L39.9930746,71.9913903 L39.9994385,72 L40.0102945,71.9891443 L40.0028076,71.9891443 C41.6907256,66.6541081 44.2871771,61.5039938 47.784675,56.792227 C53.5903794,57.6520767 59.0666608,59.4560018 64.0349571,62.0359252 L64.0300907,62.0415403 L64.041321,62.0415403 L64.041321,62.0273155 L64.0372032,62.0314332 C61.4564742,57.0651179 59.6532582,51.5893314 58.7922665,45.7830062 C63.5015166,42.2893287 68.6450061,39.6948061 73.977165,38.0080482 L73.9928875,38.0080482 L74,38.0001872 L73.9898927,37.9897058 Z" id="Fill-3"></path>
                <path d="M39.9992557,74.9896636 C19.6052451,74.9896636 3.01257418,58.3955853 3.01257418,38.0009303 C3.01257418,17.6029261 19.6052451,1.01219709 39.9992557,1.01219709 C60.3958713,1.01219709 76.9881701,17.6029261 76.9881701,38.0009303 C76.9881701,58.3955853 60.3958713,74.9896636 39.9992557,74.9896636 M39.9992557,0 C19.0477897,0 2,17.046962 2,38.0009303 C2,58.953038 19.0477897,76 39.9992557,76 C60.9540709,76 78,58.953038 78,38.0009303 C78,17.046962 60.9540709,0 39.9992557,0" id="Fill-5"></path>
                <path d="M11.6828159,104.076576 C11.4248048,104.097113 11.1667936,104.108482 10.914359,104.108482 C7.84015972,104.108482 5.28830288,102.530814 3.91385435,99.7807135 C2.94687013,97.8462183 2.58810821,95.6443777 2.817121,93.0483034 C3.01639188,90.7995215 3.79191247,88.9042663 5.11951748,87.4157135 C6.85161261,85.476084 9.13913813,84.7770987 11.9237255,84.967431 C15.5578165,85.2179069 16.5270314,88.1609067 16.5270314,88.1609067 C16.5270314,88.1609067 17.3464213,88.2261844 17.6616856,87.9977123 C17.8531493,87.8583553 17.9944234,87.3394338 17.8129977,87.0416499 C17.5304494,86.5762709 17.3341527,86.2531827 16.9311497,85.9073573 C15.67381,84.8288074 14.1082696,84.2376404 12.0055158,84.0495084 C11.63337,84.0150359 11.2593653,84 10.8950268,84 C6.33335964,84 2.85206776,86.5414316 1.58171595,90.7995215 C0.902113053,93.0758081 0.803221165,95.5090547 1.36311283,97.8187137 C1.85199566,99.8313221 2.8844121,101.664233 4.51612825,102.987758 C6.11252587,104.285245 8.31565868,105 10.7206648,105 C12.9390403,105 15.1116877,104.362992 16.6809458,103.251436 C17.0423101,102.997293 17.3601769,102.688507 17.6970042,102.361752 C17.7973832,102.265302 17.8985057,102.168486 18,102.072403 C17.5888179,101.780487 17.31891,101.773885 16.9906335,102.057 C15.6057753,103.251436 13.9194084,103.893579 11.6828159,104.076576" id="Fill-7"></path>
                <path d="M32.2318262,99.1479984 C32.1763425,100.90186 31.6898218,102.288643 30.7458434,103.385667 C29.7878997,104.500299 28.5397044,105.114266 27.2307411,105.114266 C23.7597993,105.114266 22.4463068,101.578601 22.4463068,99.1422569 L22.4463068,98.9317323 L32.2389976,98.9317323 L32.2318262,99.1479984 Z M31.4361819,92.4070008 C29.7878997,91.1361977 27.810867,90.7254834 25.5258429,91.1779199 C23.8073568,91.5178214 22.4753697,92.4246083 21.5634737,93.8741659 C21.8254173,94.0766522 22.0013046,94.1956943 22.1171787,94.1956943 C22.2409792,94.1956943 22.407053,94.0544515 22.7308968,93.7371335 C24.2074436,92.2933175 25.8210013,91.7203078 27.6953702,91.9706407 C30.5608976,92.3560921 32.3488327,95.3792253 32.16049,97.8484875 L32.1461472,98.0425529 L21.6042373,98.0425529 C21.1354563,98.0425529 21.0350572,98.2358528 21.0180723,98.5462809 C20.8886103,100.952768 21.4536386,102.798878 22.7475042,104.192933 C23.8277386,105.359622 25.3865674,106 27.136381,106 C29.3323292,106 31.3452187,104.998286 32.5194358,103.323658 C33.835193,101.445779 34.2681171,99.2674233 33.8416095,96.6599805 C33.5434316,94.8383685 32.7345768,93.407184 31.4361819,92.4070008 L31.4361819,92.4070008 Z" id="Fill-9"></path>
                <path d="M60.9521794,104.74451 C60.3858335,104.98159 59.8009745,105.101854 59.2153599,105.101854 C57.7127862,105.101854 56.3375365,104.291799 55.5380781,102.936728 C54.892013,101.844781 54.5342214,100.351062 54.6260306,99.1327239 L54.6400098,98.9385405 L64.1843941,98.9385405 L64.1976177,99.135022 C64.357056,101.455648 62.9315567,103.919518 60.9521794,104.74451 M59.88825,91.0383005 C59.6324686,91.0126392 59.3721535,91 59.11675,91 C56.7051513,91 54.6471883,92.0724134 53.5711687,93.8775151 C53.8307282,94.0893167 53.9863884,94.190813 54.0993553,94.190813 C54.2278127,94.190813 54.4046305,94.0487182 54.7269075,93.7503575 C54.9619089,93.5335768 55.1995551,93.3206261 55.4436242,93.1157185 C56.3738068,92.3309417 57.5854623,91.8996783 58.8545458,91.8996783 C59.7201219,91.8996783 60.5690742,92.1057349 61.3084598,92.4979318 C63.080794,93.4370595 64.3702796,95.8461597 64.1843941,97.8699571 L64.1655034,98.0599275 L58.4551944,98.0641405 C56.8430541,98.0641405 55.2309138,98.0599275 53.6191514,98.0457563 C53.1393252,98.0457563 53.0384484,98.2250026 53.0203132,98.5340874 C52.881277,100.955061 53.4548015,102.817613 54.777157,104.231284 C55.8267294,105.35502 57.4316912,106 59.1787118,106 C60.8720825,106 62.4966907,105.389873 63.6331608,104.326652 C65.0673498,102.986901 65.8339382,101.226994 65.9797751,98.9492646 C66.2143988,95.3245072 64.4212847,91.4741599 59.88825,91.0383005" id="Fill-11"></path>
                <path d="M39.0837232,104.482689 C39.8256139,103.302738 40.2438635,101.937771 40.3264176,100.426175 C40.4166426,98.7664126 40.4389249,97.072104 40.4615725,95.4357566 C40.4707046,94.7490511 40.4798366,94.0646487 40.4933521,93.3806302 C40.4981008,93.1215323 40.4981008,92.8616666 40.4959091,92.5849117 L40.4940827,91.9504096 L47.084162,91.9504096 L47.1119236,92.4651508 C47.1254391,92.695844 47.1389546,92.916557 47.1404157,93.1380378 C47.1557576,95.1052628 47.1685425,97.072104 47.1831539,99.0400968 C47.1831539,99.0400968 47.2193169,104.151427 47.2193169,104.164094 C47.2237003,104.726049 47.1239779,105.39241 47.5838698,105.803129 C47.7960996,105.993134 48.0821165,106.005801 48.3641154,105.998508 C48.4806408,105.996205 49.0267396,105.921354 48.9989781,105.887575 C48.9989781,105.887575 48.7955152,105.64268 48.7955152,104.793222 C48.7955152,102.741551 48.7626397,100.173218 48.7520464,98.1200112 C48.7421838,96.460249 48.7337823,94.7985676 48.7188056,93.1380378 C48.7140569,92.6209934 48.6957928,91.1911567 48.6837384,91.0015354 C47.6079786,91.0237986 46.4562397,91.0092124 45.3998399,91.0015354 C44.8836943,90.9980808 44.3712016,91.0015354 43.8594394,91.0015354 L38.9745034,91.0015354 C38.9807132,91.6951502 38.992037,92.6167711 39.0015344,93.3007896 C39.0303918,95.1436477 39.021625,96.8832504 39.021625,98.6623895 C39.021625,102.86515 37.3113677,104.929489 36,105.150202 C36.0942431,105.998508 36.8832555,105.915596 36.8832555,105.915596 C37.7727207,105.907919 38.4722386,105.451523 39.0837232,104.482689" id="Fill-13"></path>
                <path d="M80.960967,91.2666086 C80.9044906,91 80.8201525,91 80.7512512,91 C80.686868,91 80.6051655,91.0167583 80.4986132,91.0491322 C80.3088524,91.1081669 80.1066667,91.11388 79.9187884,91.11388 L79.8065886,91.11388 L79.7406994,91.11388 L74.9059394,91.1649165 C72.83476,91.1881495 70.7639571,91.2098591 68.6927777,91.2330921 C68.5018873,91.2372817 68.3083614,91.2586104 68.1024106,91.2822243 C68.0689013,91.2864139 68.0342624,91.2909843 68,91.2932695 L68.0421691,91.6413842 C68.118224,92.2283041 68.1219891,92.2302085 68.2699574,92.2302085 L68.2722165,92.2302085 C68.370862,92.2302085 68.4973692,92.2157354 68.664916,92.1974537 L68.7507602,92.1890746 C69.684504,92.0892868 70.6378264,92.0451059 71.4586173,92.0115894 C71.9119349,91.9936885 72.365629,91.998259 72.8302419,92.0024485 C73.0414638,92.0051146 73.2538152,92.0077807 73.4714378,92.0077807 L73.6687288,92.0077807 L73.6950845,92.5246206 C73.7060032,92.7150554 73.715416,92.8845423 73.7172985,93.0528866 C73.7172985,93.0528866 73.7922239,104.175799 73.7922239,104.178085 C73.7971186,104.735678 73.6935784,105.397248 74.167604,105.804778 C74.3863561,105.992928 74.6819162,106.005497 74.9725816,105.998641 C75.0919351,105.996356 75.6551935,105.922086 75.6269553,105.88857 C75.6269553,105.88857 75.4157334,105.645575 75.4157334,104.80233 C75.4157334,104.758911 75.4033086,100.757877 75.4055677,99.1266125 L75.4063207,92.0001633 L77.7824729,92.0001633 C78.5053713,92.0001633 79.2290228,92.0001633 79.9534273,91.9944503 C80.1872398,91.9936885 80.4338536,91.9517929 80.6714312,91.9095164 C80.8152578,91.8851407 80.9090087,91.8401981 80.9545664,91.773546 C81.0298683,91.6611895 80.9967355,91.443713 80.960967,91.2666086" id="Fill-15"></path>
            </g>
        </g>
    </g>
</svg>