<?xml version="1.0" encoding="UTF-8"?>
<svg width="36px" height="36px" viewBox="0 0 36 36" version="1.1" xmlns="http://www.w3.org/2000/svg" xmlns:xlink="http://www.w3.org/1999/xlink">
    <!-- Generator: sketchtool 42 (36781) - http://www.bohemiancoding.com/sketch -->
    <title>A7DC29F9-C3C8-44A0-8877-57A64F621237</title>
    <desc>Created with sketchtool.</desc>
    <defs></defs>
    <g id="Symbols" stroke="none" stroke-width="1" fill="none" fill-rule="evenodd">
        <g id="Icons-/-medal_grey">
            <g>
                <path d="M29.49,10.13 L23.25,20.13 C24.4777526,21.4304646 25.161174,23.1515417 25.16,24.94 C25.1518127,26.8174437 24.4003432,28.6152176 23.07,29.94 C21.7295521,31.2861988 19.8995173,32.0297633 18,32 C15.2013944,31.9936772 12.6675879,30.3439399 11.5295613,27.787159 C10.3915346,25.230378 10.8616232,22.243603 12.73,20.16 L6.51,10.13 C6.35472567,9.86180956 6.33256486,9.53678427 6.45,9.25 L8.38,4.5 L8.38,4.44 L8.38,4.44 L8.38,4.44 L8.38,4.44 L8.38,4.44 L8.38,4.44 C8.50824877,4.15587919 8.79887266,3.98070863 9.11,4 L26.88,4 C27.2078771,3.99470976 27.5021743,4.20031464 27.61,4.51 L29.61,9.29 C29.7087016,9.5725264 29.6756788,9.88440799 29.52,10.14 L29.49,10.13 Z M18,29 C15.7411554,29 13.91,27.1688446 13.91,24.91 C13.91,22.6511554 15.7411554,20.82 18,20.82 C20.2588446,20.82 22.09,22.6511554 22.09,24.91 C22.0926639,25.9955499 21.66261,27.0374059 20.895008,27.805008 C20.1274059,28.57261 19.0855499,29.0026639 18,29 L18,29 Z M18,27.49 C19.4221332,27.49 20.575,26.3371332 20.575,24.915 C20.575,23.4928668 19.4221332,22.34 18,22.34 C16.5778668,22.34 15.425,23.4928668 15.425,24.915 C15.425,26.3371332 16.5778668,27.49 18,27.49 L18,27.49 Z M22.06,19.1 L28,9.61 L26.76,6.4 L19.59,18 C20.4924602,18.2037926 21.3455693,18.5844628 22.1,19.12 L22.06,19.1 Z M16.44,18 L9.26,6.4 L8,9.61 L13.93,19.15 C14.6886402,18.6152483 15.5396079,18.2253627 16.44,18 L16.44,18 Z M18,30.51 C21.0762261,30.51 23.57,28.0162261 23.57,24.94 C23.57,21.8637739 21.0762261,19.37 18,19.37 C14.9237739,19.37 12.43,21.8637739 12.43,24.94 C12.4463997,28.0094074 14.9305926,30.4936003 18,30.51 Z M10.43,5.51 L12.49,8.84 L23.49,8.84 L25.55,5.51 L10.43,5.51 Z M13.43,10.35 L18,17.67 L22.54,10.34 L13.43,10.35 Z" id="Shape" fill-opacity="0.26" fill="#000000" fill-rule="nonzero"></path>
                <rect id="Rectangle-path" x="0" y="0" width="36" height="36"></rect>
            </g>
        </g>
    </g>
</svg>