<?xml version="1.0" encoding="UTF-8"?>
<svg width="36px" height="36px" viewBox="0 0 36 36" version="1.1" xmlns="http://www.w3.org/2000/svg" xmlns:xlink="http://www.w3.org/1999/xlink">
    <!-- Generator: sketchtool 42 (36781) - http://www.bohemiancoding.com/sketch -->
    <title>A825545B-F079-445B-8A00-6A211545131D</title>
    <desc>Created with sketchtool.</desc>
    <defs></defs>
    <g id="Symbols" stroke="none" stroke-width="1" fill="none" fill-rule="evenodd">
        <g id="Icons-/-other_grey">
            <g>
                <path d="M15.59,25.07 C14.8721545,24.2622325 14.2419663,23.3806393 13.71,22.44 C12.2477863,22.3235808 10.8413526,21.8271925 9.63,21 C8.35698303,20.1134711 7.35898162,18.886761 6.75,17.46 C6.13767912,16.0300255 5.94685053,14.4548222 6.2,12.92 C6.45908117,11.3748211 7.15279688,9.93536105 8.2,8.77 C8.37863279,8.56993127 8.6504317,8.4803596 8.9130127,8.53502577 C9.1755937,8.58969195 9.3890645,8.78029087 9.4730127,9.03502577 C9.55696091,9.28976068 9.49863279,9.56993127 9.32,9.77 C8.48493065,10.7312719 7.93128193,11.9043151 7.72,13.16 C7.50758466,14.40758 7.66398149,15.6900339 8.17,16.85 C8.65574109,18.020887 9.46368526,19.0299503 10.5,19.76 C11.2275044,20.2391411 12.0380508,20.5782819 12.89,20.76 C12.4148832,19.6704206 12.0204875,18.5473957 11.71,17.4 C10.6560546,13.3544085 10.1879529,9.17853748 10.32,5 C10.3172831,4.79761478 10.3964815,4.60272319 10.5396023,4.45960234 C10.6827232,4.31648149 10.8776148,4.23728305 11.08,4.24 L24.92,4.24 C25.1223852,4.23728305 25.3172768,4.31648149 25.4603977,4.45960234 C25.6035185,4.60272319 25.6827169,4.79761478 25.68,5 L25.68,5.06 C25.8033507,9.20999179 25.3455819,13.3568384 24.32,17.38 C24.0095125,18.5273957 23.6151168,19.6504206 23.14,20.74 C23.9919492,20.5582819 24.8024956,20.2191411 25.53,19.74 C26.5663147,19.0099503 27.3742589,18.000887 27.86,16.83 C28.3660185,15.6700339 28.5224153,14.38758 28.31,13.14 C28.0987181,11.8843151 27.5450694,10.7112719 26.71,9.75 C26.5313672,9.54993127 26.4730391,9.26976068 26.5569873,9.01502577 C26.6409355,8.76029087 26.8544063,8.56969195 27.1169873,8.51502577 C27.3795683,8.4603596 27.6513672,8.54993127 27.83,8.75 C28.8772031,9.91536105 29.5709188,11.3548211 29.83,12.9 C30.0831495,14.4348222 29.8923209,16.0100255 29.28,17.44 C28.6660193,18.8778839 27.6570161,20.1122658 26.37,21 C25.1567699,21.832377 23.7466044,22.3323134 22.28,22.45 C21.7480337,23.3906393 21.1178455,24.2722325 20.4,25.08 C20.8922931,25.3909907 21.339768,25.7678117 21.73,26.2 C22.8431738,27.5269324 23.6399389,29.0896863 24.06,30.77 C24.1461037,31.1782182 23.9080545,31.5850658 23.51,31.71 L23.33,31.71 L12.64,31.71 C12.2486867,31.695915 11.9302583,31.3903958 11.9,31 C11.914945,30.8947821 11.9488252,30.7931413 12,30.7 C12.3970598,29.0351362 13.1855496,27.4890105 14.3,26.19 C14.690232,25.7578117 15.1377069,25.3809907 15.63,25.07 L15.59,25.07 Z M18,24.34 C18.0690204,24.3234381 18.1409796,24.3234381 18.21,24.34 L18.48,24.34 C18.5289964,24.3258323 18.5810036,24.3258323 18.63,24.34 L19,24.34 C20.8728651,22.2494967 22.1989891,19.7277999 22.86,17 C23.7974382,13.33525 24.2446711,9.56235294 24.19,5.78 L11.81,5.78 C11.7553289,9.56235294 12.2025618,13.33525 13.14,17 C13.8010109,19.7277999 15.1271349,22.2494967 17,24.34 L17.39,24.34 C17.4393371,24.3284857 17.4906629,24.3284857 17.54,24.34 L17.99,24.34 L18,24.34 Z M20.63,27.19 C19.9738242,26.403494 19.022385,25.922348 18,25.86 C16.9882697,25.9303822 16.0491353,26.4107856 15.4,27.19 C14.6347828,28.0636793 14.0562701,29.084584 13.7,30.19 L22.33,30.19 C21.9619863,29.089778 21.3847267,28.0710846 20.63,27.19 L20.63,27.19 Z" id="Shape" fill-opacity="0.26" fill="#000000" fill-rule="nonzero"></path>
                <rect id="Rectangle-path" x="0" y="0" width="36" height="36"></rect>
            </g>
        </g>
    </g>
</svg>