<?xml version="1.0" encoding="UTF-8"?>
<svg width="24px" height="24px" viewBox="0 0 24 24" version="1.1" xmlns="http://www.w3.org/2000/svg" xmlns:xlink="http://www.w3.org/1999/xlink">
    <!-- Generator: sketchtool 42 (36781) - http://www.bohemiancoding.com/sketch -->
    <title>3E0130F2-D0B6-45B3-92F8-3B5669E0B7BD</title>
    <desc>Created with sketchtool.</desc>
    <defs></defs>
    <g id="Symbols" stroke="none" stroke-width="1" fill="none" fill-rule="evenodd">
        <g id="Icons-/-Navigation-/-password">
            <g>
                <path d="M12.369209,14.2826212 L14.3099628,12.2128391 C15.7941603,12.9278039 17.5997169,12.6397345 18.8195364,11.338817 C20.3934879,9.66022349 20.3934879,6.93820857 18.8195364,5.25961508 C17.2449478,3.58004023 14.6929039,3.58034219 13.1186693,5.25923763 C11.9737392,6.48028681 11.6657583,8.25180837 12.1863741,9.77345834 L4,18.5040166 L4.59423111,20 L6.91941249,19.9090347 L7.44795611,17.7904105 L9.72040347,17.3173908 L10.1273403,14.2250224 L12.369209,14.2826212 L12.369209,14.2826212 Z M17.7911166,7.78830036 C17.4202088,8.18349 16.8190409,8.18349 16.4481331,7.78830036 C16.0772253,7.39273327 16.0772253,6.75159753 16.4481331,6.35633239 C16.8190409,5.9607653 17.4202088,5.9607653 17.7911166,6.35633239 C18.1617413,6.75159753 18.1617413,7.39273327 17.7911166,7.78830036 L17.7911166,7.78830036 Z" id="Shape" stroke="#CCCCCC" stroke-width="0.7"></path>
                <rect id="Rectangle" x="0" y="0" width="24" height="24"></rect>
            </g>
        </g>
    </g>
</svg>