<?xml version="1.0" encoding="UTF-8"?>
<svg width="24px" height="24px" viewBox="0 0 24 24" version="1.1" xmlns="http://www.w3.org/2000/svg" xmlns:xlink="http://www.w3.org/1999/xlink">
    <!-- Generator: sketchtool 42 (36781) - http://www.bohemiancoding.com/sketch -->
    <title>BCDD7993-8CA7-4579-8D60-057657524E62</title>
    <desc>Created with sketchtool.</desc>
    <defs></defs>
    <g id="Symbols" stroke="none" stroke-width="1" fill="none" fill-rule="evenodd">
        <g id="Icons-/-Navigation-/-Photo_add">
            <g>
                <path d="M9,3 L7.17,5 L4,5 C2.8954305,5 2,5.8954305 2,7 L2,19 C2,20.1045695 2.8954305,21 4,21 L20,21 C21.1045695,21 22,20.1045695 22,19 L22,7 C22,5.8954305 21.1045695,5 20,5 L16.83,5 L15,3 M12,18 C9.23857625,18 7,15.7614237 7,13 C7,10.2385763 9.23857625,8 12,8 C14.7614237,8 17,10.2385763 17,13 C17,15.7614237 14.7614237,18 12,18 M16,14 L13,14 L13,17 L11,17 L11,14 L8,14 L8,12 L11,12 L11,9 L13,9 L13,12 L16,12 L16,14 Z" id="Shape" fill-opacity="0.54" fill="#000000" fill-rule="nonzero"></path>
                <rect id="Rectangle-8" x="0" y="0" width="24" height="24"></rect>
            </g>
        </g>
    </g>
</svg>