<?xml version="1.0" encoding="UTF-8"?>
<svg width="36px" height="36px" viewBox="0 0 36 36" version="1.1" xmlns="http://www.w3.org/2000/svg" xmlns:xlink="http://www.w3.org/1999/xlink">
    <!-- Generator: sketchtool 42 (36781) - http://www.bohemiancoding.com/sketch -->
    <title>45D5CEDA-659B-44D1-881F-B0B90C90C476</title>
    <desc>Created with sketchtool.</desc>
    <defs></defs>
    <g id="Symbols" stroke="none" stroke-width="1" fill="none" fill-rule="evenodd">
        <g id="Icons-/-Scholarsheep_grey">
            <g>
                <path d="M16.63,17.8 L19.2,17.8 C20.81032,17.8318968 22.1081032,19.12968 22.14,20.74 C22.1181802,22.3497112 20.8098504,23.6446907 19.2,23.65 L17.39,23.65 L17.39,24.71 L18.66,24.71 C18.8623852,24.7072831 19.0572768,24.7864815 19.2003977,24.9296023 C19.3435185,25.0727232 19.4227169,25.2676148 19.42,25.47 C19.4146124,25.8874844 19.0774844,26.2246124 18.66,26.23 L17.39,26.23 L17.39,27.32 C17.3846124,27.7374844 17.0474844,28.0746124 16.63,28.08 C16.4276148,28.0827169 16.2327232,28.0035185 16.0896023,27.8603977 C15.9464815,27.7172768 15.8672831,27.5223852 15.87,27.32 L15.87,26.22 L14.87,26.22 C14.4568166,26.204586 14.125414,25.8731834 14.11,25.46 C14.1153876,25.0425156 14.4525156,24.7053876 14.87,24.7 L15.87,24.7 L15.87,23.65 L14.87,23.65 C14.5795171,23.6834861 14.2955838,23.5473501 14.1398019,23.2998957 C13.9840201,23.0524414 13.9840201,22.7375586 14.1398019,22.4901043 C14.2955838,22.2426499 14.5795171,22.1065139 14.87,22.14 L15.87,22.14 L15.87,18.56 C15.8672831,18.3576148 15.9464815,18.1627232 16.0896023,18.0196023 C16.2327232,17.8764815 16.4276148,17.7972831 16.63,17.8 L16.63,17.8 Z M25,11.75 L25,12.33 L28.21,10.69 L18,5.51 L7.82,10.69 L10.76,12.17 L10.76,11.81 C10.76,10.96 11.7,10.33 13.18,9.96 C14.709504,9.62008052 16.2733198,9.45900078 17.84,9.48 C19.4166619,9.45748713 20.9905859,9.61857103 22.53,9.96 C23.98,10.32 24.92,10.96 24.95,11.75 L25,11.75 Z M17.84,32.09 C15.3304421,32.1006905 12.9205813,31.1085017 11.1460398,29.3339602 C9.37149833,27.5594187 8.37930951,25.1495579 8.39,22.64 C8.38244548,21.2578394 8.68306798,19.8913735 9.27,18.64 C9.6519621,17.8162969 10.1503972,17.0518052 10.75,16.37 L10.75,13.9 L5.75,11.36 C5.50219913,11.2307684 5.34680686,10.9744747 5.34680686,10.695 C5.34680686,10.4155253 5.50219913,10.1592316 5.75,10.03 L17.66,4 C17.8667306,3.87821428 18.1232694,3.87821428 18.33,4 L30.2,10 C30.2887359,10.0338651 30.3629619,10.0974874 30.41,10.18 C30.5559239,10.3077907 30.6336318,10.4965099 30.62,10.69 L30.62,15.69 C30.6227169,15.8923852 30.5435185,16.0872768 30.4003977,16.2303977 C30.2572768,16.3735185 30.0623852,16.4527169 29.86,16.45 C29.4425156,16.4446124 29.1053876,16.1074844 29.1,15.69 L29.1,11.9 L25,14 L25,16.36 C25.6101862,17.0448491 26.1095493,17.8208864 26.48,18.66 C27.0711475,19.9099373 27.3719836,21.2773738 27.36,22.66 C27.3573516,25.1706838 26.3567599,27.5773371 24.578626,29.3498439 C22.8004922,31.1223507 20.3906796,32.1153094 17.88,32.11 L17.84,32.09 Z M12.27,15.09 C12.9204222,14.8686118 13.5899469,14.7079259 14.27,14.61 C15.4426081,14.4406987 16.6252796,14.350495 17.81,14.34 L17.81,14.34 C19.0046198,14.3519326 20.1971742,14.4421257 21.38,14.61 C22.0639175,14.7032588 22.7349374,14.8743689 23.38,15.12 L23.38,11.81 C22.9744052,11.6280297 22.5478202,11.4970312 22.11,11.42 C20.7070905,11.119224 19.2746259,10.9783259 17.84,11 C16.3952536,10.9733944 14.952292,11.1143348 13.54,11.42 C13.1021798,11.4970312 12.6755948,11.6280297 12.27,11.81 L12.27,15.09 Z M12.27,28.2 C14.5419734,30.4627618 17.9509025,31.1391082 20.9146588,29.9151381 C23.878415,28.6911679 25.8167275,25.8065211 25.83,22.6 C25.8287444,21.4504436 25.5797587,20.3146593 25.1,19.27 C24.6313745,18.2504232 23.9493438,17.3433224 23.1,16.61 C22.4904035,16.3512616 21.8474349,16.1795789 21.19,16.1 C20.0852363,15.9590422 18.9735591,15.8789213 17.86,15.86 C16.7350975,15.8720518 15.6123926,15.9622691 14.5,16.13 C13.8671819,16.2033937 13.2458275,16.3545339 12.65,16.58 C11.8042384,17.3166633 11.1228297,18.2229368 10.65,19.24 C10.1736689,20.2963935 9.92494762,21.4411929 9.92,22.6 C9.91163989,24.7041149 10.7515651,26.7228194 12.25,28.2 L12.27,28.2 Z M19.27,19.27 L17.39,19.27 L17.39,22.09 L19.2,22.09 C19.5715203,22.09584 19.9305296,21.9558263 20.2,21.7 C20.4543507,21.4271455 20.6032416,21.0726433 20.62,20.7 C20.6040725,19.9224486 19.9775514,19.2959275 19.2,19.28 L19.27,19.27 Z" id="Shape" fill-opacity="0.26" fill="#000000" fill-rule="nonzero"></path>
                <rect id="Rectangle-path" x="0" y="0" width="36" height="36"></rect>
            </g>
        </g>
    </g>
</svg>