<?xml version="1.0" encoding="UTF-8"?>
<svg width="36px" height="36px" viewBox="0 0 36 36" version="1.1" xmlns="http://www.w3.org/2000/svg" xmlns:xlink="http://www.w3.org/1999/xlink">
    <!-- Generator: sketchtool 42 (36781) - http://www.bohemiancoding.com/sketch -->
    <title>5069DE66-345C-4898-8BF0-064531E2939F</title>
    <desc>Created with sketchtool.</desc>
    <defs></defs>
    <g id="Symbols" stroke="none" stroke-width="1" fill="none" fill-rule="evenodd">
        <g id="Icons-/-t-shirt_white">
            <g>
                <path d="M34.66,11.17 L28.79,6.17 L28.67,6 C28.5652628,5.94382794 28.4488115,5.91300259 28.33,5.91 L22.1,4.27 L21.86,4.27 C21.449595,4.26438248 21.1109067,4.58970153 21.1,5 C21.0522902,5.50892176 20.756739,5.96160148 20.31,6.21 C18.8824695,7.0155584 17.1375305,7.0155584 15.71,6.21 C15.2479494,5.973186 14.9387378,5.51691027 14.89,5 L14.89,4.81 C14.7825272,4.42318224 14.3927281,4.18667492 14,4.27 L7.59,5.93 L7.35,6 C7.29,6 7.26,6.09 7.2,6.12 L1.36,11.12 C1.0731668,11.3751789 1.02168389,11.8042032 1.24,12.12 L4.9,17.44 C5.13938767,17.7414881 5.55955783,17.8297238 5.9,17.65 L8.56,16.16 L8.56,30.49 C8.56292663,30.8274952 8.69124089,31.1518451 8.92,31.4 C9.15997242,31.6227429 9.47271667,31.7506837 9.8,31.76 L26.21,31.76 C26.53847,31.7564198 26.8532015,31.627666 27.09,31.4 C27.330699,31.1595155 27.4610293,30.8300693 27.45,30.49 L27.45,16.16 L30.11,17.65 C30.4468353,17.8530184 30.883285,17.761364 31.11,17.44 L34.77,12.2 C35.0143926,11.8824147 34.9659495,11.4288109 34.66,11.17 L34.66,11.17 Z M5.75,16 L2.84,11.87 L7.49,7.87 L7.58,8.04 C7.65,8.19 7.71,8.34 7.77,8.5 C7.91680753,8.86516489 8.04038723,9.23924398 8.14,9.62 C8.3976744,10.6712887 8.53852718,11.7478064 8.56,12.83 L8.56,14.44 L5.75,16 Z M25.95,21.63 L25.95,30.23 L10,30.23 L10,21.63 L10,12.79 C9.95851079,11.5870498 9.79772262,10.3911878 9.52,9.22 C9.38581986,8.70201096 9.21539999,8.19409291 9.01,7.7 L9.01,7.65 C8.94,7.49 8.88,7.32 8.81,7.16 L13.5,5.92 C13.7748829,6.54055727 14.2271934,7.06593328 14.8,7.43 C15.7547948,8.03850895 16.8679885,8.35159467 18,8.33 C19.104246,8.35248659 20.1902491,8.04617802 21.12,7.45 C21.6928066,7.08593328 22.1451171,6.56055727 22.42,5.94 L27.14,7.18 C27.14,7.27 27.07,7.36 27.03,7.45 C26.99,7.54 26.89,7.78 26.82,7.95 C26.66,8.37 26.51,8.79 26.38,9.24 C26.0980607,10.4096276 25.9471323,11.6069934 25.93,12.81 L25.93,21.65 L25.95,21.63 Z M30.24,16 L27.45,14.43 L27.45,12.83 C27.4564307,11.7467291 27.5975127,10.6684597 27.87,9.62 C27.9726015,9.21277386 28.0994952,8.81205675 28.25,8.42 L28.37,8.13 C28.37,8.04 28.46,7.97 28.5,7.88 L33.14,11.88 L30.24,16 Z" id="Shape" fill="#FFFFFF" fill-rule="nonzero"></path>
                <rect id="Rectangle-path" x="0" y="0" width="36" height="36"></rect>
            </g>
        </g>
    </g>
</svg>