<?xml version="1.0" encoding="UTF-8"?>
<svg width="36px" height="36px" viewBox="0 0 36 36" version="1.1" xmlns="http://www.w3.org/2000/svg" xmlns:xlink="http://www.w3.org/1999/xlink">
    <!-- Generator: sketchtool 42 (36781) - http://www.bohemiancoding.com/sketch -->
    <title>565F00C1-72DA-422E-A2A7-D7DA43AEF53B</title>
    <desc>Created with sketchtool.</desc>
    <defs></defs>
    <g id="Symbols" stroke="none" stroke-width="1" fill="none" fill-rule="evenodd">
        <g id="Icons-/-thank_doc_grey">
            <g>
                <path d="M6.51,5.23 L29.51,5.23 C29.9307645,5.21143229 30.3390494,5.37547534 30.63,5.68 C30.9433949,5.96709338 31.1182392,6.37506347 31.11,6.8 L31.11,24.42 C31.1048395,24.8496732 30.9270663,25.2592114 30.6167075,25.5564034 C30.3063488,25.8535955 29.8894933,26.0134592 29.46,26 L26.07,26 L26.07,30 C26.0802361,30.172942 26.026887,30.343659 25.92,30.48 C25.7994477,30.6423297 25.6169668,30.7473876 25.4160527,30.7701326 C25.2151387,30.7928776 25.0137903,30.731272 24.86,30.6 L22,28.45 L19.21,30.57 C19.0652477,30.6859486 18.8854641,30.7494016 18.7,30.75 C18.3054309,30.7236377 17.9991203,30.3954478 18,30 L18,26 L6.51,26 C6.10178363,25.9983928 5.71046073,25.8368375 5.42,25.55 C5.11668457,25.2558628 4.94381281,24.8524954 4.94,24.43 L4.94,6.8 C4.93176082,6.37506347 5.10660515,5.96709338 5.42,5.68 L5.48,5.62 C5.75624662,5.37505051 6.1108566,5.23675262 6.48,5.23 L6.51,5.23 Z M24.51,25.23 L24.51,23.12 C23.7469803,23.5605852 22.8810854,23.7917205 22,23.79 C21.1095927,23.7904399 20.2343425,23.5595668 19.46,23.12 L19.46,28.48 L21.55,26.88 C21.8208866,26.6815845 22.1891134,26.6815845 22.46,26.88 L24.52,28.48 L24.51,25.23 Z M13.84,19.82 C14.2235237,19.8642116 14.5129655,20.1889364 14.5129655,20.575 C14.5129655,20.9610636 14.2235237,21.2857884 13.84,21.33 L9.42,21.33 C9.03647634,21.2857884 8.74703448,20.9610636 8.74703448,20.575 C8.74703448,20.1889364 9.03647634,19.8642116 9.42,19.82 L13.84,19.82 Z M13.84,16.25 C14.2235237,16.2942116 14.5129655,16.6189364 14.5129655,17.005 C14.5129655,17.3910636 14.2235237,17.7157884 13.84,17.76 L9.42,17.76 C9.03647634,17.7157884 8.74703448,17.3910636 8.74703448,17.005 C8.74703448,16.6189364 9.03647634,16.2942116 9.42,16.25 L13.84,16.25 Z M15.6,12.68 C16.0174844,12.6853876 16.3546124,13.0225156 16.36,13.44 C16.3627169,13.6423852 16.2835185,13.8372768 16.1403977,13.9803977 C15.9972768,14.1235185 15.8023852,14.2027169 15.6,14.2 L9.42,14.2 C9.21761478,14.2027169 9.02272319,14.1235185 8.87960234,13.9803977 C8.73648149,13.8372768 8.65728305,13.6423852 8.66,13.44 C8.66538757,13.0225156 9.00251556,12.6853876 9.42,12.68 L15.6,12.68 Z M26.6,9.11 C27.0174844,9.11538757 27.3546124,9.45251556 27.36,9.87 C27.3627169,10.0723852 27.2835185,10.2672768 27.1403977,10.4103977 C26.9972768,10.5535185 26.8023852,10.6327169 26.6,10.63 L9.42,10.63 C9.21761478,10.6327169 9.02272319,10.5535185 8.87960234,10.4103977 C8.73648149,10.2672768 8.65728305,10.0723852 8.66,9.87 C8.66538757,9.45251556 9.00251556,9.11538757 9.42,9.11 L26.6,9.11 Z M26.09,21.92 L26.09,24.49 L29.48,24.49 L29.54,24.49 L29.54,6.8 C29.54,6.8 29.54,6.8 29.54,6.74 L6.54,6.74 C6.54,6.74 6.54,6.74 6.54,6.8 L6.54,24.42 L6.54,24.42 L18,24.42 L18,21.91 C17.184694,20.9448021 16.7350947,19.7234496 16.73,18.46 C16.7351607,17.0512251 17.2999351,15.7022417 18.3,14.71 C19.2750931,13.7173554 20.6085445,13.1587474 22,13.16 C23.422188,13.1416123 24.7918673,13.6966928 25.8,14.7 L25.8,14.7 C26.7909274,15.6959115 27.344993,17.0450972 27.34,18.45 C27.3349053,19.7134496 26.885306,20.9348021 26.07,21.9 L26.09,21.92 Z M19.37,21.16 C20.0672784,21.8604335 21.0117267,22.2590409 22,22.27 C23.0017215,22.2721384 23.961503,21.8680198 24.66,21.15 C25.7589786,20.0732482 26.0956827,18.4378414 25.5114255,17.0145383 C24.9271684,15.5912351 23.5385425,14.6640657 22,14.67 C20.9960858,14.6716442 20.0318864,15.0623421 19.31,15.76 C18.5924586,16.4732782 18.1889877,17.4432533 18.1889877,18.455 C18.1889877,19.4667467 18.5924586,20.4367218 19.31,21.15 L19.37,21.16 Z" id="Shape" fill-opacity="0.26" fill="#000000" fill-rule="nonzero"></path>
                <rect id="Rectangle-path" x="0" y="0" width="36" height="36"></rect>
            </g>
        </g>
    </g>
</svg>