<?xml version="1.0" encoding="UTF-8"?>
<svg width="40px" height="40px" viewBox="0 0 40 40" version="1.1" xmlns="http://www.w3.org/2000/svg" xmlns:xlink="http://www.w3.org/1999/xlink">
    <!-- Generator: sketchtool 42 (36781) - http://www.bohemiancoding.com/sketch -->
    <title>74F51ACA-4C10-4844-BE03-42BEAEF64D5F</title>
    <desc>Created with sketchtool.</desc>
    <defs></defs>
    <g id="Symbols" stroke="none" stroke-width="1" fill="none" fill-rule="evenodd">
        <g id="Other-/-other">
            <g id="Thank_docs-/-White">
                <g id="XMLID_2142_" transform="translate(9.000000, 8.000000)">
                    <g id="укрепляющий_2_" transform="translate(3.157895, 0.000000)">
                        <g id="XMLID_2131_" transform="translate(0.252632, 0.252632)" fill="#FFCF00">
                            <g id="XMLID_2134_">
                                <ellipse id="XMLID_2222_" cx="7.85330526" cy="7.83157895" rx="7.83157895" ry="7.83157895"></ellipse>
                            </g>
                        </g>
                        <g id="XMLID_2093_" transform="translate(0.505263, 0.631579)" fill="#FFFFFF">
                            <g id="XMLID_2094_">
                                <path d="M0.0101052632,8.13536842 C0.0101052632,4.07898947 1.15477895,0.0226105263 8.00235789,0.0226105263 C1.25962105,1.19734737 0.411663158,6.06694737 0.0101052632,8.13536842 L0.0101052632,8.13536842 Z" id="XMLID_2199_"></path>
                            </g>
                        </g>
                        <g id="XMLID_2088_" opacity="0.35" transform="translate(7.705263, 7.578947)" fill="#000000">
                            <g id="XMLID_2092_">
                                <path d="M8.08332632,0.0290526316 C8.08332632,4.08543158 6.93865263,8.14181053 0.0910736842,8.14181053 C6.83368421,6.96707368 7.68164211,2.09747368 8.08332632,0.0290526316 L8.08332632,0.0290526316 Z" id="XMLID_2196_"></path>
                            </g>
                        </g>
                        <g id="XMLID_2079_" fill="#000000">
                            <g id="XMLID_2080_">
                                <path d="M8.10606316,16.1684211 C3.64837895,16.1684211 0.0218526316,12.5418947 0.0218526316,8.08421053 C0.0218526316,3.62652632 3.64837895,0 8.10606316,0 C12.5637474,0 16.1902737,3.62652632 16.1902737,8.08421053 C16.1902737,12.5418947 12.5637474,16.1684211 8.10606316,16.1684211 L8.10606316,16.1684211 Z M8.10606316,0.505263158 C3.92703158,0.505263158 0.527115789,3.90517895 0.527115789,8.08421053 C0.527115789,12.2632421 3.92703158,15.6631579 8.10606316,15.6631579 C12.2850947,15.6631579 15.6850105,12.2632421 15.6850105,8.08421053 C15.6850105,3.90517895 12.2850947,0.505263158 8.10606316,0.505263158 L8.10606316,0.505263158 Z" id="XMLID_2191_"></path>
                            </g>
                        </g>
                        <g id="XMLID_989_" transform="translate(2.147368, 2.273684)" fill="#B1B1B1">
                            <g id="XMLID_2078_" transform="translate(-0.000000, 0.000000)">
                                <path d="M11.8182316,5.93633684 C11.8182316,5.25271579 10.6992,5.19385263 10.2708632,5.19385263 C8.96311579,5.19385263 6.83886316,5.72741053 6.07541053,5.88745263 C6.72884211,5.46113684 8.61271579,4.33111579 9.53305263,3.41191579 C9.84063158,3.10433684 10.5851368,2.27557895 10.1019789,1.79305263 C9.61882105,1.30913684 8.78614737,2.05869474 8.48286316,2.36210526 C7.55835789,3.28724211 6.43338947,5.16581053 6.00656842,5.82 C6.16774737,5.05578947 6.70092632,2.92484211 6.70092632,1.62341053 C6.70092632,1.18913684 6.64168421,0.0756631579 5.95844211,0.0756631579 C5.27583158,0.0756631579 5.21696842,1.19595789 5.21696842,1.62341053 C5.21696842,2.93191579 5.74976842,5.05578947 5.91056842,5.82 C5.48349474,5.16505263 4.35435789,3.28130526 3.4344,2.36210526 C3.12656842,2.05452632 2.29844211,1.30913684 1.81528421,1.79305263 C1.33237895,2.27557895 2.08143158,3.10888421 2.38471579,3.41191579 C3.3096,4.33705263 5.18842105,5.46138947 5.84235789,5.88745263 C5.07776842,5.72741053 2.94783158,5.19385263 1.6464,5.19385263 C1.21149474,5.19385263 0.0989052632,5.25271579 0.0989052632,5.93633684 C0.0989052632,6.61894737 1.21781053,6.67781053 1.6464,6.67781053 C2.95477895,6.67781053 5.0784,6.14564211 5.84235789,5.98421053 C5.18842105,6.41103158 3.30467368,7.54029474 2.38471579,8.46050526 C2.07713684,8.76846316 1.33250526,9.59684211 1.81528421,10.0796211 C2.29844211,10.5627789 3.13149474,9.81284211 3.4344,9.50993684 C4.35903158,8.58467368 5.48387368,6.70661053 5.91006316,6.05317895 C5.74964211,6.81726316 5.21684211,8.94732632 5.21684211,10.2482526 C5.21684211,10.6831579 5.27570526,11.7957474 5.95831579,11.7957474 C6.64168421,11.7957474 6.7008,10.6767158 6.7008,10.2482526 C6.7008,8.94025263 6.16762105,6.81625263 6.00644211,6.05317895 C6.43364211,6.70661053 7.56315789,8.59010526 8.48273684,9.50993684 C8.79082105,9.81751579 9.61869474,10.5629053 10.1018526,10.0796211 C10.5850105,9.59684211 9.83583158,8.76378947 9.53292632,8.46050526 C8.60766316,7.53562105 6.72871579,6.41103158 6.07528421,5.98421053 C6.83949474,6.14564211 8.96981053,6.67781053 10.2707368,6.67781053 C10.7057684,6.67768421 11.8182316,6.61882105 11.8182316,5.93633684 L11.8182316,5.93633684 Z" id="XMLID_2188_"></path>
                            </g>
                        </g>
                    </g>
                    <g id="XMLID_2136_" transform="translate(0.000000, 1.894737)">
                        <g id="XMLID_2140_" transform="translate(0.252632, 0.757895)" fill="#FFCF00">
                            <path d="M21.9449684,5.50837895 C21.9449684,3.52143158 21.4167158,1.65776842 20.4932211,0.0502736842 C20.3682947,0.649768421 20.1876632,1.22867368 19.9578947,1.78206316 C20.4344842,2.92989474 20.6987368,4.18812632 20.6987368,5.50837895 C20.6987368,10.8800842 16.3441263,15.2345684 10.9725474,15.2345684 C5.60084211,15.2345684 1.24635789,10.8799579 1.24635789,5.50837895 C1.24635789,4.18812632 1.51061053,2.92989474 1.9872,1.78206316 C1.75743158,1.22867368 1.5768,0.649768421 1.45187368,0.0502736842 C0.528252632,1.65776842 0,3.52130526 0,5.50837895 C0,10.7026105 3.60922105,15.0534316 8.45658947,16.1906526 C8.44534737,16.2807158 8.43688421,16.3768421 8.43473684,16.4852211 C8.38951579,18.7912421 6.65949474,20.7913263 6.65949474,20.7913263 L10.7016,20.7913263 L14.7437053,20.7913263 C14.7437053,20.7913263 13.0135579,18.7875789 12.9683368,16.4816842 C12.9670737,16.4177684 12.9635368,16.3584 12.9589895,16.3010526 C18.0706105,15.3661895 21.9449684,10.8899368 21.9449684,5.50837895 L21.9449684,5.50837895 Z" id="XMLID_2185_"></path>
                        </g>
                        <g id="XMLID_2141_" opacity="0.35" transform="translate(8.589474, 16.800000)" fill="#000000">
                            <path d="M2.47616842,1.06964211 C4.24458947,1.05802105 4.65991579,0.877010526 4.65991579,0.877010526 C4.65258947,0.827115789 4.64652632,0.750189474 4.64147368,0.664547368 C4.64084211,0.655073684 4.64046316,0.645726316 4.63983158,0.636252632 C4.63566316,0.559073684 4.63225263,0.477094737 4.6296,0.401557895 C4.62656842,0.302778947 4.61886316,0.213094737 4.60787368,0.130105263 L2.3664,0.272715789 L0.142357895,0.00581052632 C0.1296,0.0696 0.119115789,0.137810526 0.111789474,0.212589474 L0.101305263,0.377557895 C0.100421053,0.399915789 0.0984,0.42 0.0978947368,0.443242105 C0.0949894737,0.590147368 0.0851368421,0.735789474 0.0694736842,0.879789474 L0.0693473684,0.882442105 C0.0693473684,0.882442105 0.455115789,1.05802105 2.22353684,1.06964211 L2.22353684,1.07014737 C2.34985263,1.07014737 2.31928421,1.07002105 2.34985263,1.06989474 C2.38042105,1.07002105 2.47616842,1.07014737 2.47616842,1.07014737 L2.47616842,1.06964211 L2.47616842,1.06964211 Z" id="XMLID_2148_"></path>
                        </g>
                        <g id="XMLID_2144_" transform="translate(0.378947, 0.757895)" fill="#FFFFFF">
                            <path d="M1.60610526,0.672757895 C1.54875789,0.467621053 1.49570526,0.260715789 1.45187368,0.0502736842 C0.528252632,1.65776842 0,3.52130526 0,5.50837895 C0,6.30757895 0.0862736842,7.08656842 0.248463158,7.83726316 C0.208294737,7.58450526 -0.367831579,3.69789474 1.60610526,0.672757895 L1.60610526,0.672757895 Z" id="XMLID_2180_"></path>
                        </g>
                        <g id="XMLID_2143_" transform="translate(20.336842, 2.021053)" fill="#FFFFFF">
                            <g id="XMLID_2145_" transform="translate(0.126316, 0.000000)">
                                <path d="M0.168757895,0.0818526316 C0.115831579,0.229136842 0.0597473684,0.375031579 0,0.518905263 C0.476589474,1.66673684 0.740842105,2.92496842 0.740842105,4.24522105 C0.740842105,5.06741053 0.637768421,5.86534737 0.445768421,6.62791579 C0.868042105,5.05098947 1.21743158,2.52404211 0.168757895,0.0818526316 L0.168757895,0.0818526316 Z" id="XMLID_2178_"></path>
                            </g>
                            <g id="XMLID_2146_" transform="translate(0.000000, 7.705263)">
                                <path id="XMLID_2176_"></path>
                            </g>
                            <g id="XMLID_2147_" transform="translate(0.000000, 7.957895)">
                                <path id="XMLID_2174_"></path>
                            </g>
                        </g>
                        <g id="XMLID_2149_" fill="#000000">
                            <path d="M15.5269895,22.0546105 L6.3816,22.0546105 L6.71608421,21.6425684 C6.73288421,21.6219789 8.39204211,19.5538105 8.43486316,17.3646316 C8.43574737,17.3146105 8.4384,17.2294737 8.44244211,17.1433263 C6.10307368,16.5457263 3.98741053,15.1821474 2.46618947,13.2869053 C0.875873684,11.3055158 0,8.81216842 0,6.26627368 C0,4.30458947 0.5136,2.3736 1.48534737,0.682231579 L1.81629474,0.106357895 L1.95183158,0.756378947 C2.07145263,1.33048421 2.24690526,1.89789474 2.47313684,2.44307368 L2.51330526,2.53995789 L2.47313684,2.63684211 C1.99427368,3.78985263 1.75162105,5.01107368 1.75162105,6.26627368 C1.75162105,11.4899368 6.00151579,15.7398316 11.2253053,15.7398316 C16.4489684,15.7398316 20.6988632,11.4899368 20.6988632,6.26627368 C20.6988632,5.01094737 20.4560842,3.78985263 19.9773474,2.63684211 L19.9371789,2.53995789 L19.9773474,2.44307368 C20.2037053,1.89814737 20.3790316,1.33048421 20.4986526,0.756378947 L20.6341895,0.106231579 L20.9651368,0.682231579 C21.9367579,2.3736 22.4504842,4.30458947 22.4504842,6.26627368 C22.4504842,8.91221053 21.5147368,11.4895579 19.8156632,13.5236211 C18.18,15.4816421 15.9346105,16.8269053 13.4732211,17.3287579 C13.4734737,17.3405053 13.4737263,17.3512421 13.4739789,17.3608421 C13.5170526,19.5546947 15.1760842,21.6219789 15.1927579,21.6425684 L15.5269895,22.0546105 L15.5269895,22.0546105 Z M7.41183158,21.5493474 L14.4970105,21.5493474 C13.9842947,20.8050947 13.0033263,19.1535158 12.9684632,17.3709474 C12.9672,17.3110737 12.9640421,17.1958737 12.9598737,17.1419368 L12.9420632,16.9146947 L13.1662737,16.8736421 C15.5962105,16.4292632 17.8197474,15.1244211 19.4276211,13.1998737 C21.0510316,11.2565053 21.9449684,8.79410526 21.9449684,6.2664 C21.9449684,4.61191579 21.5626105,2.98067368 20.8344,1.50985263 C20.7365053,1.85886316 20.6191579,2.20332632 20.4834947,2.54008421 C20.9617263,3.72631579 21.2041263,4.97936842 21.2041263,6.2664 C21.2041263,11.7688421 16.7276211,16.2452211 11.2253053,16.2452211 C5.72286316,16.2452211 1.24635789,11.7688421 1.24635789,6.2664 C1.24635789,4.97936842 1.48875789,3.72631579 1.96698947,2.54008421 C1.83132632,2.2032 1.71410526,1.85873684 1.61608421,1.50985263 C0.887621053,2.98067368 0.505263158,4.61191579 0.505263158,6.26627368 C0.505263158,8.73271579 1.31962105,11.0511158 2.86029474,12.9706105 C4.35625263,14.8345263 6.45397895,16.1598316 8.76694737,16.7024842 L8.98812632,16.7544 L8.95983158,16.9797474 C8.95048421,17.0542737 8.94214737,17.2604211 8.94,17.3743579 C8.90513684,19.1565474 7.92467368,20.8057263 7.41183158,21.5493474 L7.41183158,21.5493474 Z" id="XMLID_2151_"></path>
                        </g>
                        <g id="XMLID_2135_" transform="translate(7.831579, 19.957895)" fill="#000000">
                            <rect id="XMLID_2150_" x="0.0761684211" y="0.0756631579" width="5.93684211" height="0.505263158"></rect>
                        </g>
                    </g>
                </g>
                <rect id="Rectangle-19" x="0" y="0" width="40" height="40"></rect>
            </g>
        </g>
    </g>
</svg>