<?xml version="1.0" encoding="UTF-8"?>
<svg width="40px" height="40px" viewBox="0 0 40 40" version="1.1" xmlns="http://www.w3.org/2000/svg" xmlns:xlink="http://www.w3.org/1999/xlink">
    <!-- Generator: sketchtool 42 (36781) - http://www.bohemiancoding.com/sketch -->
    <title>9949F3BE-DCEE-4B21-AD71-81D8B4EDAD25</title>
    <desc>Created with sketchtool.</desc>
    <defs></defs>
    <g id="Symbols" stroke="none" stroke-width="1" fill="none" fill-rule="evenodd">
        <g id="Thank_docs-/-White">
            <g>
                <g id="thank_document_1" transform="translate(6.000000, 11.000000)">
                    <path d="M26.0652308,17.3042637 L1.71498901,17.3042637 C1.15621978,17.3042637 0.703296703,16.8513407 0.703296703,16.2925714 L0.703296703,1.78848352 C0.703296703,1.22971429 1.15621978,0.776791209 1.71498901,0.776791209 L26.0652308,0.776791209 C26.624,0.776791209 27.0769231,1.22971429 27.0769231,1.78848352 L27.0769231,16.2925714 C27.0769231,16.8513407 26.624,17.3042637 26.0652308,17.3042637 L26.0652308,17.3042637 Z" id="Shape" fill="#FFFFFF"></path>
                    <path d="M26.0652308,17.6559121 L1.71498901,17.6559121 C0.963516484,17.6559121 0.351648352,17.044044 0.351648352,16.2925714 L0.351648352,1.78848352 C0.351648352,1.03683516 0.963516484,0.425142857 1.71498901,0.425142857 L26.0652308,0.425142857 C26.8168791,0.425142857 27.4285714,1.03701099 27.4285714,1.78848352 L27.4285714,16.2925714 C27.4285714,17.0442198 26.8167033,17.6559121 26.0652308,17.6559121 L26.0652308,17.6559121 Z M1.71498901,1.12843956 C1.35103297,1.12843956 1.05494505,1.42452747 1.05494505,1.78848352 L1.05494505,16.2925714 C1.05494505,16.6565275 1.35103297,16.9526154 1.71498901,16.9526154 L26.0652308,16.9526154 C26.4291868,16.9526154 26.7252747,16.6565275 26.7252747,16.2925714 L26.7252747,1.78848352 C26.7252747,1.42452747 26.4291868,1.12843956 26.0652308,1.12843956 L1.71498901,1.12843956 L1.71498901,1.12843956 Z" id="Shape" fill="#000000"></path>
                    <path d="M24.967033,9.07323077 C24.967033,8.55665934 24.1213187,8.51235165 23.7978022,8.51235165 C22.8096703,8.51235165 21.2047473,8.91534066 20.6276923,9.03630769 C21.1214066,8.7141978 22.5448791,7.8603956 23.2404396,7.16589011 C23.4725275,6.93345055 24.0351648,6.30734066 23.6701538,5.94268132 C23.3051429,5.57696703 22.676044,6.14312088 22.4467692,6.37169231 C21.7482198,7.07006593 20.8982857,8.49037363 20.576,8.98443956 C20.6973187,8.40632967 21.1004835,6.79718681 21.1004835,5.81292308 C21.1004835,5.48465934 21.0547692,4.64369231 20.5378462,4.64369231 C20.0221538,4.64369231 19.9776703,5.48975824 19.9776703,5.81292308 C19.9776703,6.80140659 20.3803077,8.40632967 20.5016264,8.98356044 C20.1793407,8.48879121 19.3260659,7.06531868 18.6308571,6.37081319 C18.3987692,6.13872527 17.7728352,5.57520879 17.4076484,5.94092308 C17.0428132,6.30558242 17.6087912,6.93520879 17.8378901,7.16413187 C18.5371429,7.86320879 19.9565714,8.71261538 20.4506374,9.0349011 C19.8730549,8.91358242 18.2633846,8.51094505 17.2805275,8.51094505 C16.9517363,8.51094505 16.1112967,8.5549011 16.1112967,9.07182418 C16.1112967,9.58698901 16.9566593,9.63164835 17.2805275,9.63164835 C18.2691868,9.63164835 19.8739341,9.22989011 20.4506374,9.10769231 C19.9565714,9.43032967 18.5332747,10.2836044 17.8378901,10.9784615 C17.6058022,11.2114286 17.0431648,11.8373626 17.408,12.2021978 C17.7728352,12.5672088 18.4022857,12.0007033 18.6312088,11.7714286 C19.3301099,11.0727033 20.1802198,9.65362637 20.501978,9.15991209 C20.3806593,9.73749451 19.978022,11.3471648 19.978022,12.330022 C19.978022,12.6588132 20.0228571,13.4992527 20.5385495,13.4992527 C21.0544176,13.4992527 21.0994286,12.6535385 21.0994286,12.330022 C21.0994286,11.3418901 20.6967912,9.73661538 20.5744176,9.16026374 C20.8972308,9.65362637 21.7506813,11.0767473 22.4451868,11.7717802 C22.6781538,12.0042198 23.3037363,12.5673846 23.6689231,12.2021978 C24.0337582,11.8375385 23.4677802,11.2082637 23.2388571,10.978989 C22.5396044,10.2802637 21.1201758,9.43050549 20.6261099,9.10821978 C21.2035165,9.23006593 22.8133626,9.63217582 23.7962198,9.63217582 C24.125011,9.63217582 24.9654505,9.58769231 24.9654505,9.072 L24.967033,9.07323077 Z" id="Shape" fill="#000000"></path>
                    <path d="M14.0659341,10.5524396 L2.63736264,10.5524396 C2.44325275,10.5524396 2.28571429,10.3949011 2.28571429,10.2007912 C2.28571429,10.0066813 2.44325275,9.84914286 2.63736264,9.84914286 L14.0659341,9.84914286 C14.260044,9.84914286 14.4175824,10.0066813 14.4175824,10.2007912 C14.4175824,10.3949011 14.260044,10.5524396 14.0659341,10.5524396 L14.0659341,10.5524396 Z" id="Shape" fill="#000000"></path>
                    <path d="M14.0659341,13.013978 L2.63736264,13.013978 C2.44325275,13.013978 2.28571429,12.8564396 2.28571429,12.6623297 C2.28571429,12.4682198 2.44325275,12.3106813 2.63736264,12.3106813 L14.0659341,12.3106813 C14.260044,12.3106813 14.4175824,12.4682198 14.4175824,12.6623297 C14.4175824,12.8564396 14.260044,13.013978 14.0659341,13.013978 L14.0659341,13.013978 Z" id="Shape" fill="#000000"></path>
                    <path d="M14.0659341,7.91507692 L2.63736264,7.91507692 C2.44325275,7.91507692 2.28571429,7.75753846 2.28571429,7.56342857 C2.28571429,7.36931868 2.44325275,7.21178022 2.63736264,7.21178022 L14.0659341,7.21178022 C14.260044,7.21178022 14.4175824,7.36931868 14.4175824,7.56342857 C14.4175824,7.75753846 14.260044,7.91507692 14.0659341,7.91507692 L14.0659341,7.91507692 Z" id="Shape" fill="#000000"></path>
                    <path d="M14.0659341,5.27771429 L2.63736264,5.27771429 C2.44325275,5.27771429 2.28571429,5.12017582 2.28571429,4.92606593 C2.28571429,4.73195604 2.44325275,4.57441758 2.63736264,4.57441758 L14.0659341,4.57441758 C14.260044,4.57441758 14.4175824,4.73195604 14.4175824,4.92606593 C14.4175824,5.12017582 14.260044,5.27771429 14.0659341,5.27771429 L14.0659341,5.27771429 Z" id="Shape" fill="#000000"></path>
                    <path d="M13.8579341,16.2493187 C0.0175824176,-3.73034936e-14 0.671120879,16.3592088 0.671120879,13.0844835 L0.671120879,16.2925714 C0.671120879,16.973011 1.25274725,17.2337582 2.10989011,17.2337582 L25.6703297,17.2337582 C0.0175824176,-3.73034936e-14 27.0447473,16.9731868 27.0447473,16.2925714 L27.0447473,13.0844835 C27.0447473,16.3592088 13.8579341,16.2493187 13.8579341,16.2493187 L13.8579341,16.2493187 Z" id="Shape" fill="#000000" opacity="0.35"></path>
                    <path d="M6.81547253,0.415648352 L0.519208791,7.3927033 C0.39789011,7.52668132 0.175824176,7.44105495 0.175824176,7.26083516 L0.175824176,5.32676923 C0.175824176,5.23147253 0.210989011,5.13951648 0.274285714,5.06830769 L4.50707692,0.305934066 C4.58057143,0.223296703 4.68606593,0.175824176 4.79683516,0.175824176 L6.70874725,0.175824176 C6.83305495,0.175824176 6.89863736,0.323516484 6.8152967,0.415648352 L6.81547253,0.415648352 Z" id="Shape" fill="#FFCF00"></path>
                    <path d="M0.373978022,7.63393407 C0.328791209,7.63393407 0.283076923,7.62567033 0.238945055,7.60861538 C0.0931868132,7.55287912 0,7.41626374 0,7.26083516 L0,5.32676923 C0,5.18821978 0.0506373626,5.05494505 0.142769231,4.95156044 L4.37591209,0.189186813 C4.48281319,0.0689230769 4.63613187,0 4.79701099,0 L6.70874725,0 C6.8370989,0 6.94857143,0.0726153846 7.00061538,0.18989011 C7.05265934,0.306637363 7.03173626,0.43832967 6.94575824,0.533274725 L0.649494505,7.51050549 C0.577054945,7.59085714 0.477186813,7.63393407 0.373978022,7.63393407 L0.373978022,7.63393407 Z M4.79701099,0.351648352 C4.73652747,0.351648352 4.67885714,0.377494505 4.63876923,0.422857143 L0.405274725,5.18505495 C0.370461538,5.22426374 0.351472527,5.27472527 0.351472527,5.32676923 L0.351472527,7.26083516 C0.351472527,7.26575824 0.351472527,7.27525275 0.36378022,7.28017582 C0.377846154,7.28545055 0.383472527,7.27841758 0.386989011,7.2749011 L6.63595604,0.351648352 L4.79683516,0.351648352 L4.79701099,0.351648352 Z" id="Shape" fill="#000000"></path>
                </g>
                <rect id="Rectangle-19" x="0" y="0" width="40" height="40"></rect>
            </g>
        </g>
    </g>
</svg>